<svg width="24" height="21" viewBox="0 0 24 21" fill="none" xmlns="http://www.w3.org/2000/svg">
<path d="M19 0.206787H5C3.67441 0.208231 2.40356 0.687589 1.46622 1.53971C0.528882 2.39184 0.00158786 3.54716 0 4.75224L0 15.6613C0.00158786 16.8664 0.528882 18.0217 1.46622 18.8739C2.40356 19.726 3.67441 20.2053 5 20.2068H19C20.3256 20.2053 21.5964 19.726 22.5338 18.8739C23.4711 18.0217 23.9984 16.8664 24 15.6613V4.75224C23.9984 3.54716 23.4711 2.39184 22.5338 1.53971C21.5964 0.687589 20.3256 0.208231 19 0.206787ZM5 2.02497H19C19.5988 2.02604 20.1835 2.18998 20.679 2.4957C21.1744 2.80142 21.5579 3.23492 21.78 3.74042L14.122 10.7032C13.5584 11.2134 12.7954 11.4999 12 11.4999C11.2046 11.4999 10.4416 11.2134 9.878 10.7032L2.22 3.74042C2.44215 3.23492 2.82561 2.80142 3.32105 2.4957C3.81648 2.18998 4.40121 2.02604 5 2.02497ZM19 18.3886H5C4.20435 18.3886 3.44129 18.1013 2.87868 17.5898C2.31607 17.0783 2 16.3847 2 15.6613V6.11588L8.464 11.9886C9.40263 12.8397 10.6743 13.3177 12 13.3177C13.3257 13.3177 14.5974 12.8397 15.536 11.9886L22 6.11588V15.6613C22 16.3847 21.6839 17.0783 21.1213 17.5898C20.5587 18.1013 19.7956 18.3886 19 18.3886Z" fill="#DCDCDC"/>
</svg>
